<?xml version="1.0" encoding="UTF-8"?>
<svg id="Layer_1" data-name="Layer 1" xmlns="http://www.w3.org/2000/svg" viewBox="0 0 96.94 106.47">
  <defs>
    <style>
      .cls-1 {
        fill: #014444;
      }
    </style>
  </defs>
  <g>
    <path class="cls-1" d="M80.27,51.68c1.79,16.86-10.02,32.4-26.96,35.03-1.66.26-3.35.39-5.01.39-9.67,0-18.69-4.34-24.77-11.91l-.72-.9-1.06.47-3.69,1.63,1.48-13.87,11.27,8.22-3.34,1.48-1.89.84,1.39,1.54c5.45,6.04,13.23,9.5,21.35,9.5,1.5,0,3.03-.12,4.52-.35,15.3-2.38,25.99-16.38,24.45-31.61l2.97-.45M81.55,49.97l-5.93.91c2.3,14.98-8.02,29.06-23.01,31.38-1.44.22-2.87.33-4.29.33-7.73,0-15.04-3.25-20.24-9.01l5.71-2.53-15.47-11.28-2.03,19.04,6.06-2.69c6.39,7.95,15.87,12.47,25.94,12.47,1.73,0,3.48-.13,5.24-.41,18.24-2.83,30.81-19.98,28.02-38.22h0Z"/>
    <path class="cls-1" d="M48.61,22.54c9.67,0,18.7,4.34,24.78,11.91l.72.9,1.06-.47,3.69-1.63-1.48,13.87-11.27-8.22,3.34-1.48,1.89-.84-1.39-1.54c-5.45-6.04-13.24-9.5-21.36-9.5-1.5,0-3.02.12-4.52.35-15.3,2.38-25.99,16.38-24.45,31.61l-2.97.46c-1.79-16.86,10.02-32.4,26.96-35.03,1.66-.26,3.34-.39,5-.39M48.61,21.04c-1.73,0-3.48.13-5.23.41-18.24,2.83-30.81,19.98-28.01,38.22l5.93-.91c-2.3-14.98,8.02-29.06,23-31.38,1.44-.22,2.87-.33,4.29-.33,7.73,0,15.04,3.24,20.25,9l-5.71,2.53,15.47,11.28,2.03-19.04-6.06,2.69c-6.39-7.95-15.87-12.47-25.95-12.47h0Z"/>
  </g>
</svg>
