<?xml version="1.0" encoding="UTF-8"?>
<svg id="Layer_1" data-name="Layer 1" xmlns="http://www.w3.org/2000/svg" viewBox="0 0 96.94 106.47">
  <defs>
    <style>
      .cls-1 {
        fill: none;
        stroke: #014444;
        stroke-miterlimit: 10;
        stroke-width: 1.5px;
      }

      .cls-3 {
        fill: #014444;
      }
    </style>
  </defs>
  <path class="cls-3" d="M48.47,36.56c3.52,0,6.94,1.12,9.76,3.17l1.83-2.15,3,8.49-8.86-1.64,1.75-2.05c-2.19-1.52-4.8-2.35-7.49-2.35-7.26,0-13.16,5.9-13.16,13.16s5.9,13.16,13.16,13.16,13.16-5.9,13.16-13.16h3.47c0,9.17-7.46,16.63-16.63,16.63s-16.63-7.46-16.63-16.63,7.46-16.63,16.63-16.63M60.62,34.64l-1.69,1.98-.97,1.13c-2.85-1.76-6.11-2.68-9.49-2.68-10,0-18.13,8.13-18.13,18.13s8.13,18.13,18.13,18.13,18.13-8.13,18.13-18.13v-1.5h-6.47v1.5c0,6.43-5.23,11.66-11.66,11.66s-11.66-5.23-11.66-11.66,5.23-11.66,11.66-11.66c1.82,0,3.59.42,5.2,1.23l-.6.7-1.69,1.98,2.55.47,8.86,1.64,2.55.47-.87-2.45-3-8.49-.87-2.45h0Z"/>
  <rect class="cls-1" x="15.13" y="19.91" width="66.94" height="66.94" rx="3.42" ry="3.42"/>
  <path class="cls-1" d="M20.58,31.61v-5.19c0-.59.47-1.06,1.06-1.06h53.91c.59,0,1.06.47,1.06,1.06v53.91c0,.59-.47,1.06-1.06,1.06H21.64c-.59,0-1.06-.47-1.06-1.06v-5.48"/>
  <line class="cls-1" x1="20.58" y1="62.56" x2="20.58" y2="43.9"/>
  <path class="cls-1" d="M20.58,86.85h13.28v2.95c0,.32-.26.58-.58.58h-12.13c-.32,0-.58-.26-.58-.58v-2.95h0Z"/>
  <rect class="cls-1" x="14.44" y="36.13" width="12.29" height="3.27" rx=".88" ry=".88" transform="translate(58.34 17.18) rotate(90)"/>
  <rect class="cls-1" x="14.44" y="67.07" width="12.29" height="3.27" rx=".88" ry=".88" transform="translate(89.29 48.12) rotate(90)"/>
  <path class="cls-1" d="M63.45,86.85h13.28v2.95c0,.32-.26.58-.58.58h-12.13c-.32,0-.58-.26-.58-.58v-2.95h0Z"/>
</svg>
