<?xml version="1.0" encoding="UTF-8"?>
<svg id="Layer_1" data-name="Layer 1" xmlns="http://www.w3.org/2000/svg" viewBox="0 0 96.94 106.47">
  <defs>
    <style>
      .cls-1 {
        fill: none;
        stroke: #014444;
        stroke-miterlimit: 10;
        stroke-width: 1.5px;
      }

      .cls-3 {
        fill: #014444;
      }
    </style>
  </defs>
  <rect class="cls-1" x="15.12" y="19.91" width="66.94" height="66.94" rx="3.42" ry="3.42"/>
  <path class="cls-1" d="M20.58,31.61v-5.19c0-.59.47-1.06,1.06-1.06h53.91c.58,0,1.06.47,1.06,1.06v53.91c0,.59-.48,1.06-1.06,1.06H21.64c-.59,0-1.06-.47-1.06-1.06v-5.48"/>
  <line class="cls-1" x1="20.58" y1="62.56" x2="20.58" y2="43.9"/>
  <circle class="cls-1" cx="60.92" cy="43.14" r="7.95"/>
  <circle class="cls-1" cx="60.92" cy="43.14" r="4.94"/>
  <path class="cls-1" d="M20.58,86.85h13.28v2.95c0,.32-.26.58-.58.58h-12.13c-.32,0-.58-.26-.58-.58v-2.95h0Z"/>
  <rect class="cls-1" x="14.43" y="36.13" width="12.29" height="3.27" rx=".88" ry=".88" transform="translate(58.34 17.18) rotate(90)"/>
  <rect class="cls-1" x="14.43" y="67.07" width="12.29" height="3.27" rx=".88" ry=".88" transform="translate(89.28 48.13) rotate(90)"/>
  <path class="cls-1" d="M63.45,86.85h13.28v2.95c0,.32-.26.58-.58.58h-12.13c-.32,0-.58-.26-.58-.58v-2.95h0Z"/>
  <g>
    <path class="cls-1" d="M58.11,63.85c.73.71,1.72,1.15,2.81,1.15,2.22,0,4.03-1.8,4.03-4.03s-1.8-4.03-4.03-4.03-3.88,1.68-4,3.79"/>
    <path class="cls-1" d="M56.89,60.98c0-.08.02-.16.02-.24l-13.26,4.24c-1.02.35-1.56,1.47-1.18,2.48.37,1.01,1.51,1.52,2.51,1.12l13.12-4.71c-.75-.73-1.21-1.75-1.21-2.88Z"/>
  </g>
  <path class="cls-3" d="M61.38,70.12c.83,0,1.5.67,1.5,1.5,0,.55-.47.85-.85,1.28l.35,2.89h-2l.35-2.87c-.38-.43-.86-.74-.86-1.3,0-.83.67-1.5,1.5-1.5M61.38,68.62c-1.65,0-3,1.35-3,3,0,.85.42,1.43.79,1.83l-.27,2.16-.21,1.68h5.39l-.21-1.68-.27-2.19c.36-.39.77-.96.77-1.8,0-1.65-1.35-3-3-3h0Z"/>
</svg>
